<?xml version="1.0" encoding="UTF-8" standalone="no"?>
<!-- Created with Inkscape (http://www.inkscape.org/) -->

<svg
   version="1.1"
   id="svg1951"
   width="163.05"
   height="188.69151"
   viewBox="0 0 163.05 188.69151"
   xmlns="http://www.w3.org/2000/svg"
   xmlns:svg="http://www.w3.org/2000/svg">
  <defs
     id="defs1955" />
  <g
     id="g1957"
     transform="translate(-924.51838,-386.7186)">
    <g
       id="g2441"
       transform="matrix(0.3,0,0,0.3,790.86838,301.5186)">
      <path
         style="fill:#24dafe"
         d="M 681.25,810.86608 654,795.79119 V 718.52753 641.26386 L 784.85652,566.13193 C 856.8276,524.80937 916.0026,491 916.35652,491 916.71043,491 917,527.39567 917,571.87926 v 80.87926 L 813.53795,711.62926 710.07589,770.5 l -0.0379,27.75 c -0.0209,15.2625 -0.37545,27.73672 -0.78795,27.72049 -0.4125,-0.0162 -13.0125,-6.81321 -28,-15.10441 z M 785.8129,662 l 75.1533,-43.5 0.0169,-15.83333 c 0.009,-8.70834 -0.36255,-15.68334 -0.82632,-15.5 C 859.69301,587.35 825.50138,606.85 784.17538,630.5 l -75.13818,43 -0.0186,16.33333 c -0.0102,8.98334 0.35481,16.18334 0.8112,16 C 710.28619,705.65 744.47859,685.925 785.8129,662 Z M 516,594.13719 v -112.8628 l 99.36609,-57.1372 C 670.01743,392.71174 715.52407,367 716.49196,367 c 0.96788,0 15.42814,7.92617 32.13391,17.61371 L 779,402.22742 v 45.2673 45.26729 l -30.84023,16.87937 -30.84023,16.87936 31.34023,13.40482 C 765.8969,547.29822 780,553.87478 780,554.54015 c 0,1.32539 -56.81379,34.4585 -59.09251,34.46203 -0.77412,0.001 -15.22803,-6.14009 -32.11979,-13.64732 l -30.7123,-13.6495 -23.2877,13.81603 c -12.80824,7.59882 -32.15971,19.02761 -43.00327,25.39732 L 572.06886,612.5 l -0.0344,31.62091 -0.0344,31.6209 -27.38453,15.6291 C 529.55398,699.96691 516.95398,707 516.61547,707 516.27696,707 516,656.21174 516,594.13719 Z M 648.31,503 l 74.6642,-43.5 0.0129,-12.0226 0.0129,-12.02259 -3.41497,-1.83908 c -1.87823,-1.0115 -3.82578,-1.67633 -4.32788,-1.47741 -0.50211,0.19893 -32.93352,18.81168 -72.0698,41.36168 l -71.15688,41 -0.0152,16.33333 c -0.008,8.98334 0.35508,16.18334 0.80767,16 C 573.2755,546.65 607.24469,526.925 648.31,503 Z"
         id="path2451" />
      <path
         style="fill:#314855"
         d="m 792.29966,401 c 0,-3.025 0.18747,-4.2625 0.41659,-2.75 0.22913,1.5125 0.22913,3.9875 0,5.5 -0.22912,1.5125 -0.41659,0.275 -0.41659,-2.75 z"
         id="path2449" />
      <path
         style="fill:#1d3845"
         d="m 792.41508,424 c 0,-10.175 0.1485,-14.3375 0.32999,-9.25 0.18149,5.0875 0.18149,13.4125 0,18.5 -0.18149,5.0875 -0.32999,0.925 -0.32999,-9.25 z"
         id="path2447" />
      <path
         style="fill:#0a2835"
         d="m 792.41683,460.5 c 9.6e-4,-10.45 0.14915,-14.58913 0.3293,-9.19806 0.18015,5.39107 0.17936,13.94107 -0.002,19 -0.18111,5.05893 -0.32851,0.64806 -0.32755,-9.80194 z"
         id="path2445" />
      <path
         style="fill:#00192b"
         d="M 649.75,875.34758 585,837.75181 584.96872,795.62591 584.93743,753.5 553.96872,736.63419 C 531.40209,724.34423 523,719.28927 523,718.00246 523,716.7129 538.74886,707.30264 581.38161,683.11827 613.4915,664.90322 640.05479,650 640.41115,650 c 0.35636,0 0.52213,34.77608 0.36839,77.28017 l -0.27954,77.28018 37.75272,21.82302 37.75273,21.82303 19.77894,-11.3532 C 746.66281,830.60894 795.46865,802.55 844.24181,774.5 l 88.67848,-51 0.009,-125 0.009,-125 L 896.96956,453.1477 861,432.79539 V 400.3977 C 861,382.57896 861.27724,368 861.61608,368 c 0.33885,0 29.13885,16.25095 64,36.11323 L 989,440.22646 v 158.26311 158.26311 l -135.86795,78.12366 c -74.72737,42.96801 -136.48987,78.11092 -137.25,78.09534 -0.76013,-0.0156 -30.51955,-16.94642 -66.13205,-37.6241 z M 508.5,792.93007 445.5,756.23388 V 599.0065 441.77913 L 580.30897,362.88956 C 654.45391,319.5003 715.74078,284 716.50201,284 c 0.76124,0 30.3222,17.04981 65.69103,37.88846 l 64.30696,37.88847 0.5,41.80091 0.5,41.80092 30.75,18.04171 c 16.9125,9.92294 30.74915,18.27522 30.74811,18.56062 -10e-4,0.2854 -23.96355,14.13245 -53.25,30.77123 -29.28646,16.63878 -55.64622,31.63072 -58.57725,33.31543 l -5.32914,3.06311 0.32914,-77.74587 L 792.5,391.63913 755,368.36391 c -20.625,-12.80137 -37.95,-23.27436 -38.5,-23.27331 -0.55,0.001 -49.6,28.70102 -109,63.77772 l -108,63.77581 v 126.33348 126.33347 l 36,19.75689 36,19.75689 0.27447,16.65108 c 0.15095,9.1581 0.15095,23.73841 0,32.4007 L 571.5,829.62626 Z"
         id="path2443" />
    </g>
  </g>
</svg>
